<?xml version="1.0" standalone="no"?>
<!DOCTYPE svg PUBLIC "-//W3C//DTD SVG 20010904//EN"
 "http://www.w3.org/TR/2001/REC-SVG-20010904/DTD/svg10.dtd">
<svg version="1.0" xmlns="http://www.w3.org/2000/svg"
 width="300.000000pt" height="169.000000pt" viewBox="0 0 300.000000 169.000000"
 preserveAspectRatio="xMidYMid meet">
<metadata>
Created by potrace 1.10, written by Peter Selinger 2001-2011
</metadata>
<g transform="translate(0.000000,169.000000) scale(0.100000,-0.100000)"
fill="#000000" stroke="none">
<path d="M1511 1497 c-6 -8 -29 -19 -50 -26 -57 -16 -101 -56 -101 -90 0 -36
8 -43 33 -30 18 10 19 9 13 -14 -5 -20 -2 -25 17 -29 16 -3 23 0 23 13 0 9 -6
15 -13 12 -7 -3 -13 2 -13 10 0 10 15 17 46 22 25 3 54 8 65 10 12 3 19 -2 20
-13 0 -14 2 -14 8 2 4 11 17 20 29 21 11 1 18 -3 15 -8 -3 -5 0 -13 8 -17 9
-6 2 -12 -22 -19 l-34 -11 40 5 c37 4 38 3 21 -10 -27 -20 -1 -20 48 0 45 19
49 50 9 66 -42 16 -266 -2 -279 -22 -7 -12 -24 -12 -24 0 0 22 56 61 105 72
44 10 52 15 48 30 -4 13 0 19 12 19 12 0 16 -6 12 -20 -5 -18 0 -20 41 -20 29
0 59 -8 80 -20 17 -11 32 -16 32 -11 0 14 -56 51 -77 51 -10 0 -35 9 -56 20
-44 24 -42 23 -56 7z"/>
<path d="M1430 1290 c-36 -9 -60 -33 -60 -59 0 -10 7 -5 18 12 22 35 53 43 92
24 17 -9 28 -12 25 -7 -8 14 17 17 55 8 35 -9 77 -34 69 -42 -2 -2 -39 -1 -82
3 -42 4 -84 3 -91 -1 -8 -5 -26 -9 -40 -10 -18 -2 -26 -8 -26 -21 0 -10 -4
-16 -9 -12 -10 6 -8 -72 3 -82 7 -7 9 10 6 44 -2 32 34 63 72 62 18 -1 56 2
83 5 66 9 96 -7 113 -61 9 -28 18 -40 27 -37 9 4 13 -1 12 -15 -1 -12 -6 -21
-12 -21 -6 0 -11 -9 -11 -20 0 -11 3 -20 7 -20 4 0 1 -23 -6 -51 -10 -37 -10
-49 -2 -46 7 2 15 24 19 48 3 24 13 64 22 88 18 48 13 65 -15 56 -12 -4 -19
-2 -19 6 0 7 -12 36 -26 66 -21 46 -32 57 -70 74 -48 20 -95 23 -154 9z"/>
<path d="M1460 1170 c12 -8 8 -10 -15 -11 -16 -1 -33 -1 -37 0 -11 1 -10 -21
2 -39 6 -9 24 -14 50 -14 22 1 40 -2 40 -7 0 -5 -5 -9 -11 -9 -5 0 -7 -5 -4
-10 4 -6 -4 -19 -16 -29 l-22 -18 21 -5 c15 -4 22 -2 22 8 0 8 10 14 23 14 18
0 19 -2 7 -10 -20 -13 -4 -13 21 1 26 14 13 32 -17 25 -26 -7 -26 -3 -7 67 6
25 23 21 23 -5 0 -13 5 -30 10 -38 8 -12 10 -11 10 7 0 20 4 22 33 18 l32 -5
-27 12 c-16 7 -28 17 -28 22 0 6 -19 12 -42 12 -23 1 -44 7 -46 13 -2 6 -11
11 -20 11 -15 0 -15 -2 -2 -10z m30 -30 c0 -5 -18 -10 -41 -10 -24 0 -38 4
-34 10 3 6 22 10 41 10 19 0 34 -4 34 -10z"/>
<path d="M1370 1075 c-7 -9 -10 -19 -6 -22 4 -4 11 -2 15 6 12 19 21 -11 21
-73 l0 -53 -53 -12 c-29 -6 -81 -25 -115 -41 -66 -31 -92 -67 -92 -125 0 -40
17 -29 23 16 7 51 26 72 85 93 26 10 63 24 82 33 54 25 60 24 60 -8 0 -19 -5
-29 -15 -29 -8 0 -15 -5 -15 -11 0 -6 8 -9 18 -7 11 2 18 14 20 36 2 17 7 32
12 32 5 0 10 17 12 37 l3 37 33 -31 c24 -22 30 -32 20 -36 -7 -3 -3 -6 10 -6
12 -1 22 5 22 12 0 16 38 49 42 36 2 -6 12 -7 22 -3 19 7 19 8 0 15 -10 4 -31
8 -46 8 -15 1 -31 7 -35 15 -4 8 -23 16 -42 18 -30 3 -36 8 -43 35 -10 39 -22
48 -38 28z"/>
<path d="M1634 993 c-14 -33 -14 -71 1 -83 8 -7 15 -18 15 -25 0 -22 36 -60
44 -47 4 7 1 12 -7 12 -8 0 -20 14 -26 30 -9 28 2 44 12 18 4 -8 6 -7 6 3 1 9
-8 19 -19 22 -18 5 -20 11 -14 46 7 43 2 53 -12 24z"/>
<path d="M1503 903 c-21 -7 -15 -23 8 -23 11 0 35 -10 52 -22 l31 -22 -19 26
c-22 30 -53 47 -72 41z"/>
<path d="M1244 776 c-4 -18 -1 -32 9 -44 13 -14 22 -44 26 -86 1 -5 8 -3 16 4
8 7 15 11 15 8 0 -2 10 -31 21 -63 46 -127 43 -155 -16 -155 -36 0 -38 2 -48
70 -3 16 -5 10 -6 -15 -1 -45 -14 -71 -29 -61 -5 3 -13 -1 -16 -10 -4 -10 -13
-13 -25 -9 -11 3 -22 2 -25 -4 -3 -5 12 -8 37 -7 23 1 74 3 114 4 66 2 72 4
75 25 4 23 -49 182 -82 246 -20 40 -18 53 7 44 13 -5 13 -3 2 15 -8 12 -20 21
-28 19 -8 -1 -20 9 -27 22 l-13 25 -7 -28z"/>
<path d="M1875 770 c4 -19 7 -49 6 -67 0 -18 4 -35 10 -39 17 -10 6 113 -10
129 -11 10 -12 6 -6 -23z"/>
<path d="M1767 693 c-11 -21 -16 -62 -7 -68 5 -3 12 7 16 22 3 15 7 34 10 41
4 13 -12 17 -19 5z"/>
<path d="M1890 585 c-1 -38 -2 -117 -3 -175 l-2 -105 -66 -1 c-37 -1 -124 -4
-194 -8 -114 -5 -131 -4 -159 13 -48 29 -125 42 -224 39 -51 -1 -92 -5 -92 -8
1 -45 49 -72 80 -45 9 8 45 17 81 21 56 5 67 4 72 -10 5 -13 -2 -16 -43 -16
-28 0 -50 -4 -50 -10 0 -5 24 -10 54 -10 30 0 58 5 61 10 3 6 16 10 28 9 20
-1 20 -2 -3 -9 -23 -7 -23 -8 -3 -9 12 -1 24 -5 27 -9 7 -12 106 -14 106 -3 0
5 28 10 63 11 34 0 100 2 146 3 60 1 85 -2 88 -10 3 -8 -5 -13 -21 -13 -17 0
-26 -5 -26 -16 0 -11 -6 -15 -20 -11 -10 3 -24 -1 -30 -8 -6 -7 -31 -16 -57
-20 -57 -8 -73 -14 -73 -27 0 -6 8 -7 18 -3 9 4 26 8 37 11 61 12 121 28 130
34 6 5 21 10 35 12 14 2 24 9 22 16 -1 8 15 13 50 14 40 1 44 2 18 5 l-36 4 4
178 c3 118 1 185 -7 197 -8 15 -11 4 -11 -51z"/>
<path d="M1485 454 c-10 -8 -15 -14 -9 -15 5 -1 -2 -5 -16 -9 -24 -8 -23 -8 8
-9 17 -1 32 2 32 7 0 4 32 7 70 8 39 0 70 -2 70 -6 0 -17 -70 -38 -116 -34
l-49 4 34 -16 c22 -10 65 -16 118 -17 84 -1 105 5 86 24 -9 9 -20 8 -44 0 -17
-6 -44 -11 -58 -10 l-26 1 28 11 c15 6 27 14 27 19 0 4 20 8 45 8 43 0 44 1
28 18 -14 14 -20 15 -26 5 -6 -11 -14 -10 -38 2 -19 10 -41 14 -62 10 -18 -4
-44 -2 -57 3 -19 7 -31 6 -45 -4z"/>
<path d="M1765 408 l-30 -20 40 7 c46 8 49 10 40 24 -8 15 -15 13 -50 -11z"/>
<path d="M1420 371 l-45 -7 35 -7 c19 -5 49 -15 66 -24 24 -12 37 -13 60 -5
l29 10 -28 1 c-15 1 -35 10 -44 21 -10 11 -20 19 -23 18 -3 0 -25 -4 -50 -7z"/>
<path d="M889 231 c-37 -37 -39 -84 -4 -134 24 -36 24 -37 5 -47 -23 -12 -27
-50 -6 -50 9 0 16 12 18 28 l3 27 115 5 115 5 -100 8 c-113 9 -132 19 -142 80
-6 39 3 91 15 83 4 -2 13 2 20 10 26 28 -10 14 -39 -15z"/>
<path d="M2195 187 c-4 -9 -2 -30 3 -47 6 -16 7 -30 3 -30 -4 0 -13 -12 -20
-26 l-12 -27 -117 7 c-64 3 -142 11 -172 17 -30 5 -64 10 -75 9 -37 0 -235 20
-252 27 -16 6 -16 5 -4 -10 7 -9 10 -17 5 -18 -33 -4 55 -17 118 -18 42 -1 80
-5 83 -11 4 -6 16 -4 31 6 22 15 26 15 48 0 19 -12 58 -16 183 -18 l158 -3 23
29 c23 31 29 89 12 116 -8 12 -10 12 -15 -3z"/>
<path d="M1195 76 c-57 -12 -58 -13 -24 -17 20 -3 50 -1 65 4 16 5 45 12 64
17 l35 8 -40 0 c-22 -1 -67 -6 -100 -12z"/>
<path d="M1359 69 c-16 -10 -18 -10 43 -13 30 -2 49 2 52 10 6 15 -72 18 -95
3z"/>
<path d="M1466 22 c-36 -2 -66 -7 -66 -11 0 -14 158 -7 172 7 10 10 7 12 -14
10 -14 -2 -56 -4 -92 -6z"/>
<path d="M1600 23 c8 -2 25 -9 37 -15 22 -11 93 -3 93 10 0 4 -33 8 -73 9 -39
1 -65 -1 -57 -4z"/>
</g>
</svg>
